<svg viewBox="0 0 500 500" xmlns="http://www.w3.org/2000/svg"><g fill="none" stroke-width="2"><path d="m426.98 80.77q4.09 5.23 8.31 10.4 29.9 36.64 43.86 81.86 14.33 46.42 9.79 95.01" stroke="#44929d"/><path d="m488.94 268.04-97.34-97.54" stroke="#52a3b6"/><path d="m391.6 170.5q-7.69-8.15-10.58-11.02-46.48-46.01-110.67-55.02-9.07-1.27-19.92-1.54-13.2-.32-23.26.72-65.22 6.74-112.27 50.36-51.43 47.68-61.02 118.83-.6 4.49-.87 9.53-.26 4.83-.5 9.72" stroke="#40737f"/><path d="m52.51 292.08-5.1.22q-.92.04-.27.69l5.29 5.37" stroke="#52a3b6"/><path d="m52.43 298.36.09 2.03q.02.5.53.54l2.03.16" stroke="#40737f"/><path d="m55.08 301.09 187.51 188.72" stroke="#52a3b6"/><path d="m242.59 489.81q-.25.23-.83.22c-58.55-1.02-114.58-22.35-158.5-61.11" stroke="#44929d"/><path d="m83.26 428.92q-1.2-1.55-2.61-2.01" stroke="#52a3b6"/><path d="m82.51 428.99q.3-.21.75-.07" stroke="#164f55"/><path d="m242.59 489.81q17.92.34 22.53-.16 11.56-1.26 14.62-1.69c47.8-6.63 94.19-28.41 129.52-60.68q63.71-58.18 78.24-143.4.33-1.92.36-3.76.04-1.92.46-3.83.43-1.94.44-4.1.01-2.12.18-4.15" stroke="#164f55"/><path d="m391.6 170.5q1.63 2.93 3.71 5.48c28.54 35.21 42.62 79.18 42.15 124.57a.44.43-0 0 1 -.44.43l-115.45.01a.4.39-89.3 0 1 -.39-.41q.82-25.88-13.21-46.7c-25.68-38.11-80.24-45.15-114.03-13.65q-25.83 24.08-25.13 60.33.01.4-.39.4l-113.34.13" stroke="#123037"/><path d="m52.43 298.36q.59-3.17.08-6.28" stroke="#123037"/><path d="m148.68 139.12c-53.17 33.35-85.37 89.45-87.48 152.53q-.02.6.58.6h18.01q.61 0 .63-.61c1.85-52.82 28.19-100.9 71.48-131.04q27.01-18.8 60.32-25.74c72.29-15.07 145.3 20.85 179.07 86.22q17.04 32.98 18.34 70.57.02.6.62.6h17.95q.63 0 .61-.62-1.24-41.93-19.74-78.51c-36.21-71.56-113.76-111.96-193.16-99.18q-36.42 5.85-67.23 25.18" stroke="#7e1220"/><path d="m268.01 140.55c-93.95-13.81-177.61 58.17-180.3 152.39q-.01.57.56.57h17.47q.63 0 .66-.63c2.86-76.79 66.38-136.98 143.41-134.55 47.26 1.49 89.82 27.24 114.22 67.79q18.11 30.11 19.66 66.84.02.55.57.55h17.51a.62.62 0 0 0 .62-.64q-1.52-42.48-22.7-77.49c-24.38-40.33-65.09-67.97-111.68-74.83" stroke="#7f6e21"/><path d="m162.89 193.2c-30.87 24.51-49.18 61.3-50.38 100.94q-.02.55.54.55h19.77q.6 0 .62-.61 1.26-36.83 23.31-65.61c29.13-38.02 79.46-53.46 124.94-37.5 44.19 15.49 73.42 56.65 74.89 103.13q.02.59.61.59h19.63q.63 0 .65-.62.06-1.52-.03-3.06-2.32-39.18-24.21-70.14c-44.01-62.26-130.3-75.32-190.34-27.67" stroke="#2a5209"/><path d="m275.25 197.03c-65.15-20.08-131.37 27.96-134.02 95.78q-.02.34.32.34h19.02q.58 0 .62-.58 2.4-34.83 27.6-58.08c29.46-27.17 75.71-29.42 107.32-4.34q30 23.8 32.79 62.69.02.31.34.31h19.27a.37.36-1.5 0 0 .37-.38c-2.3-44.53-30.97-82.59-73.63-95.74" stroke="#005d80"/></g><path d="m426.98 80.77q4.09 5.23 8.31 10.4 29.9 36.64 43.86 81.86 14.33 46.42 9.79 95.01l-97.34-97.54q-7.69-8.15-10.58-11.02-46.48-46.01-110.67-55.02-9.07-1.27-19.92-1.54-13.2-.32-23.26.72-65.22 6.74-112.27 50.36-51.43 47.68-61.02 118.83-.6 4.49-.87 9.53-.26 4.83-.5 9.72l-5.1.22q-.92.04-.27.69l5.29 5.37.09 2.03q.02.5.53.54l2.03.16 187.51 188.72q-.25.23-.83.22c-58.55-1.02-114.58-22.35-158.5-61.11q-1.2-1.55-2.61-2.01-18.68-17.45-32.08-35.48-45.49-61.23-48.57-138.81v-15.13q3.63-84.18 56.04-148.14c21.99-26.83 49.91-48.74 80.77-63.92 82.19-40.46 180.78-31.64 254.1 22.91q18.7 13.91 36.07 32.43z" fill="#80e6fe"/><path d="m426.98 80.77c45.07 44.44 70.79 103.78 73.02 167.11v14.62q-1.91 53.2-24.37 99.14-21.43 43.83-56.37 75.14-66.36 59.48-157.06 63.22h-14.69q-58.3-2.14-108.76-29.27-30.59-16.44-56.24-41.74.3-.21.75-.07c43.92 38.76 99.95 60.09 158.5 61.11q.58.01.83-.22 17.92.34 22.53-.16 11.56-1.26 14.62-1.69c47.8-6.63 94.19-28.41 129.52-60.68q63.71-58.18 78.24-143.4.33-1.92.36-3.76.04-1.92.46-3.83.43-1.94.44-4.1.01-2.12.18-4.15 4.54-48.59-9.79-95.01-13.96-45.22-43.86-81.86-4.22-5.17-8.31-10.4z" fill="#083d3b"/><path d="m391.6 170.5q1.63 2.93 3.71 5.48c28.54 35.21 42.62 79.18 42.15 124.57a.44.43-0 0 1 -.44.43l-115.45.01a.4.39-89.3 0 1 -.39-.41q.82-25.88-13.21-46.7c-25.68-38.11-80.24-45.15-114.03-13.65q-25.83 24.08-25.13 60.33.01.4-.39.4l-113.34.13-2.03-.16q-.51-.04-.53-.54l-.09-2.03q.59-3.17.08-6.28.24-4.89.5-9.72.27-5.04.87-9.53 9.59-71.15 61.02-118.83 47.05-43.62 112.27-50.36 10.06-1.04 23.26-.72 10.85.27 19.92 1.54 64.19 9.01 110.67 55.02 2.89 2.87 10.58 11.02zm-242.92-31.38c-53.17 33.35-85.37 89.45-87.48 152.53q-.02.6.58.6h18.01q.61 0 .63-.61c1.85-52.82 28.19-100.9 71.48-131.04q27.01-18.8 60.32-25.74c72.29-15.07 145.3 20.85 179.07 86.22q17.04 32.98 18.34 70.57.02.6.62.6h17.95q.63 0 .61-.62-1.24-41.93-19.74-78.51c-36.21-71.56-113.76-111.96-193.16-99.18q-36.42 5.85-67.23 25.18zm119.33 1.43c-93.95-13.81-177.61 58.17-180.3 152.39q-.01.57.56.57h17.47q.63 0 .66-.63c2.86-76.79 66.38-136.98 143.41-134.55 47.26 1.49 89.82 27.24 114.22 67.79q18.11 30.11 19.66 66.84.02.55.57.55h17.51a.62.62 0 0 0 .62-.64q-1.52-42.48-22.7-77.49c-24.38-40.33-65.09-67.97-111.68-74.83zm-105.12 52.65c-30.87 24.51-49.18 61.3-50.38 100.94q-.02.55.54.55h19.77q.6 0 .62-.61 1.26-36.83 23.31-65.61c29.13-38.02 79.46-53.46 124.94-37.5 44.19 15.49 73.42 56.65 74.89 103.13q.02.59.61.59h19.63q.63 0 .65-.62.06-1.52-.03-3.06-2.32-39.18-24.21-70.14c-44.01-62.26-130.3-75.32-190.34-27.67zm112.36 3.83c-65.15-20.08-131.37 27.96-134.02 95.78q-.02.34.32.34h19.02q.58 0 .62-.58 2.4-34.83 27.6-58.08c29.46-27.17 75.71-29.42 107.32-4.34q30 23.8 32.79 62.69.02.31.34.31h19.27a.37.36-1.5 0 0 .37-.38c-2.3-44.53-30.97-82.59-73.63-95.74z"/><path d="m61.2 291.65c2.11-63.08 34.31-119.18 87.48-152.53q30.81-19.33 67.23-25.18c79.4-12.78 156.95 27.62 193.16 99.18q18.5 36.58 19.74 78.51.02.62-.61.62h-17.95q-.6 0-.62-.6-1.3-37.59-18.34-70.57c-33.77-65.37-106.78-101.29-179.07-86.22q-33.31 6.94-60.32 25.74c-43.29 30.14-69.63 78.22-71.48 131.04q-.02.61-.63.61h-18.01q-.6 0-.58-.6z" fill="#fc243f"/><path d="m87.71 292.94c2.69-94.22 86.35-166.2 180.3-152.39 46.59 6.86 87.3 34.5 111.68 74.83q21.18 35.01 22.7 77.49a.62.62 0 0 1 -.62.64h-17.51q-.55 0-.57-.55-1.55-36.73-19.66-66.84c-24.4-40.55-66.96-66.3-114.22-67.79-77.03-2.43-140.55 57.76-143.41 134.55q-.03.63-.66.63h-17.47q-.57 0-.56-.57z" fill="#fedb41"/><path d="m112.51 294.14c1.2-39.64 19.51-76.43 50.38-100.94 60.04-47.65 146.33-34.59 190.34 27.67q21.89 30.96 24.21 70.14.09 1.54.03 3.06-.02.62-.65.62h-19.63q-.59 0-.61-.59c-1.47-46.48-30.7-87.64-74.89-103.13-45.48-15.96-95.81-.52-124.94 37.5q-22.05 28.78-23.31 65.61-.02.61-.62.61h-19.77q-.56 0-.54-.55z" fill="#53a412"/><path d="m391.6 170.5 97.34 97.54q-.17 2.03-.18 4.15-.01 2.16-.44 4.1-.42 1.91-.46 3.83-.03 1.84-.36 3.76-14.53 85.22-78.24 143.4c-35.33 32.27-81.72 54.05-129.52 60.68q-3.06.43-14.62 1.69-4.61.5-22.53.16l-187.51-188.72 113.34-.13q.4 0 .39-.4-.7-36.25 25.13-60.33c33.79-31.5 88.35-24.46 114.03 13.65q14.03 20.82 13.21 46.7a.4.39-89.3 0 0 .39.41l115.45-.01a.44.43 0 0 0 .44-.43c.47-45.39-13.61-89.36-42.15-124.57q-2.08-2.55-3.71-5.48z" fill="#23606e"/><path d="m141.23 292.81c2.65-67.82 68.87-115.86 134.02-95.78 42.66 13.15 71.33 51.21 73.63 95.74a.37.36-1.5 0 1 -.37.38h-19.27q-.32 0-.34-.31-2.79-38.89-32.79-62.69c-31.61-25.08-77.86-22.83-107.32 4.34q-25.2 23.25-27.6 58.08-.04.58-.62.58h-19.02q-.34 0-.32-.34z" fill="#00baff"/><g fill="#23606e"><path d="m52.51 292.08q.51 3.11-.08 6.28l-5.29-5.37q-.65-.65.27-.69z"/><path d="m80.65 426.91q1.41.46 2.61 2.01-.45-.14-.75.07-1.24-.9-1.86-2.08z"/></g></svg>